<?xml version="1.0" standalone="no"?>
<!DOCTYPE svg PUBLIC "-//W3C//DTD SVG 20010904//EN"
 "http://www.w3.org/TR/2001/REC-SVG-20010904/DTD/svg10.dtd">
<svg version="1.0" xmlns="http://www.w3.org/2000/svg"
 width="1000.000000pt" height="1000.000000pt" viewBox="0 0 1000.000000 1000.000000"
 preserveAspectRatio="xMidYMid meet">
<metadata>
Created by potrace 1.11, written by Peter Selinger 2001-2013
</metadata>
<g transform="translate(0.000000,1000.000000) scale(0.100000,-0.100000)"
fill="#000000" stroke="none">
<path d="M2520 6581 c-74 -8 -126 -26 -147 -53 -15 -17 -863 -2980 -870 -3038
-8 -65 13 -81 124 -91 151 -14 294 4 311 39 5 9 168 612 363 1339 195 728 356
1323 359 1323 3 0 153 -582 334 -1293 181 -710 335 -1308 341 -1327 22 -65 48
-75 213 -78 171 -4 216 6 243 53 9 17 175 610 369 1320 194 710 356 1293 360
1298 3 4 32 -86 63 -200 32 -115 73 -266 93 -338 76 -275 194 -699 197 -701 1
-1 48 174 103 389 98 378 102 394 91 447 -6 30 -59 237 -118 459 -73 276 -114
410 -126 423 -27 27 -183 42 -347 34 -157 -8 -224 -28 -246 -71 -8 -17 -163
-565 -345 -1218 -181 -653 -332 -1181 -336 -1174 -4 6 -143 547 -310 1201
-237 926 -309 1193 -325 1211 -12 13 -39 28 -60 34 -55 14 -246 21 -334 12z"/>
<path d="M6312 6579 c-26 -6 -48 -19 -58 -34 -8 -13 -168 -620 -354 -1350
-187 -730 -342 -1330 -345 -1333 -3 -3 -5 2 -5 12 0 17 -115 456 -127 486 -3
8 -7 21 -9 29 -10 49 -28 118 -33 126 -3 6 -7 19 -8 30 -5 33 -123 468 -133
490 -9 21 -21 61 -41 135 -12 45 -12 45 -114 -355 l-103 -400 119 -451 c65
-247 128 -469 139 -492 11 -23 30 -47 43 -54 28 -17 431 -22 421 -6 -4 7 4 8
26 3 21 -5 30 -4 26 3 -3 6 2 8 12 5 24 -6 75 53 69 79 -3 10 -1 18 5 18 5 0
6 9 3 20 -4 12 -2 20 5 20 7 0 9 8 5 21 -5 16 -4 19 5 14 10 -6 11 -1 6 19 -5
20 -4 26 5 20 9 -5 10 1 5 20 -5 20 -4 26 5 20 9 -5 10 1 5 20 -5 20 -4 26 5
20 9 -5 10 1 5 20 -5 20 -4 26 5 20 9 -5 10 1 5 20 -5 20 -4 26 5 20 9 -5 10
1 5 20 -5 20 -4 26 5 20 9 -5 10 1 5 20 -5 20 -4 26 5 20 9 -5 10 1 5 20 -5
20 -3 26 5 21 8 -5 9 -1 4 14 -4 13 -2 21 5 21 7 0 9 8 5 20 -4 12 -2 20 5 20
7 0 9 8 5 20 -4 12 -2 20 5 20 7 0 9 8 5 21 -5 16 -4 19 5 14 10 -6 11 -1 6
19 -5 20 -4 26 5 20 9 -5 10 1 5 20 -5 20 -4 26 5 20 9 -5 10 1 5 20 -5 20 -4
26 5 20 9 -5 10 1 5 20 -5 20 -4 26 5 20 9 -5 10 1 5 20 -5 20 -4 26 5 20 9
-5 10 1 5 20 -5 19 -3 26 4 21 7 -5 9 2 4 21 -5 19 -4 25 5 20 9 -6 10 0 5 20
-5 19 -4 25 5 20 9 -6 10 0 5 20 -5 20 -4 25 6 19 9 -5 10 -2 5 14 -4 13 -2
21 5 21 7 0 9 8 5 20 -4 12 -2 20 5 20 7 0 9 8 5 21 -5 16 -4 19 5 14 10 -6
11 -1 6 19 -5 20 -4 26 5 20 9 -5 10 1 5 20 -5 20 -4 26 5 20 9 -5 10 1 5 20
-5 19 -3 26 4 21 7 -5 9 2 4 21 -5 19 -4 25 5 20 9 -6 10 0 5 20 -5 19 -4 25
5 20 9 -6 10 0 5 20 -5 19 -4 25 5 20 9 -6 10 0 5 20 -5 19 -4 25 5 20 9 -6
10 0 5 20 -5 20 -4 25 6 19 9 -5 10 -2 5 14 -4 13 -2 21 5 21 7 0 9 8 5 20 -4
12 -2 20 5 20 7 0 9 8 5 21 -5 16 -4 19 5 14 10 -6 11 -1 6 19 -5 20 -4 26 5
20 9 -5 10 1 5 20 -5 19 -3 26 4 21 7 -5 9 2 4 21 -5 19 -4 25 5 20 9 -6 10 0
5 20 -5 19 -4 25 5 20 9 -6 10 0 5 20 -5 19 -4 25 5 20 9 -6 10 0 5 20 -5 19
-4 25 5 20 9 -6 10 0 5 20 -5 19 -4 25 5 20 9 -6 10 0 5 20 -5 19 -4 25 5 20
9 -6 10 0 5 20 -5 19 -4 25 5 20 9 -6 10 0 5 20 -5 20 -4 25 6 19 9 -5 10 -2
5 15 -5 17 -4 20 5 15 10 -6 11 -1 6 19 -5 20 -4 26 5 20 9 -5 10 1 5 20 -5
19 -3 26 4 21 7 -5 9 2 4 21 -5 19 -4 25 5 20 9 -6 10 0 5 20 -5 19 -4 25 5
20 9 -6 10 0 5 20 -5 19 -4 25 5 20 9 -6 10 0 5 20 -5 19 -4 25 5 20 9 -6 10
0 5 20 -5 19 -4 25 5 20 9 -6 10 0 5 20 -5 19 -4 25 5 20 9 -6 10 0 5 20 -5
19 -4 25 5 20 9 -6 10 0 5 20 -5 19 -4 25 5 20 9 -6 10 0 5 20 -5 18 -3 25 4
20 6 -4 8 2 5 14 -3 11 0 20 6 20 6 0 8 8 4 18 -4 11 -3 14 4 7 6 -5 104 -345
218 -755 113 -410 213 -769 221 -797 12 -41 20 -53 35 -53 21 0 26 16 8 22 -8
3 -6 10 5 21 10 9 13 17 8 17 -11 0 -12 99 -1 105 4 3 5 14 2 25 -3 11 -9 17
-14 15 -4 -3 -6 3 -4 14 2 10 -3 27 -10 38 -8 10 -14 23 -14 28 0 6 4 2 10 -7
5 -10 17 -18 25 -18 14 0 14 2 0 15 -9 9 -13 27 -11 45 3 20 -1 33 -9 36 -20
8 -7 44 16 44 19 0 19 1 -2 31 -12 16 -19 33 -16 36 3 4 6 1 6 -5 0 -7 4 -12
8 -12 5 0 8 10 6 23 -1 12 -3 27 -3 32 -1 6 -5 4 -10 -4 -6 -9 -11 -10 -15 -2
-4 6 -1 13 6 16 8 3 15 19 16 36 1 17 -2 28 -6 25 -5 -3 -9 5 -8 17 1 15 7 21
18 19 9 -1 20 3 24 9 4 8 3 9 -5 5 -14 -9 -43 12 -35 26 3 5 0 17 -7 26 -10
12 -7 11 10 -3 l23 -20 -13 27 c-10 22 -9 31 2 44 10 12 11 18 3 21 -7 2 -10
13 -7 23 3 11 9 18 12 15 4 -2 8 2 8 10 0 8 -3 12 -6 10 -4 -2 -11 8 -18 21
-8 17 -8 26 -1 31 7 3 8 1 4 -5 -4 -7 -5 -12 -2 -12 3 0 10 10 17 22 10 18 9
20 -5 15 -10 -4 -16 -1 -16 9 0 8 4 13 9 10 13 -8 8 19 -7 36 -9 11 -9 18 1
28 10 10 8 12 -8 6 -18 -6 -19 -5 -3 7 16 13 18 43 3 67 -4 6 1 7 12 3 10 -3
15 -3 11 2 -4 4 -2 15 5 23 8 11 8 14 0 9 -14 -9 -45 2 -37 14 3 5 13 9 23 9
10 0 18 7 18 15 0 11 -4 12 -13 4 -9 -7 -14 -4 -19 12 -6 17 -2 27 13 39 l20
17 -21 9 c-12 6 -17 9 -10 8 14 -3 26 38 12 46 -5 4 -11 16 -14 29 -2 12 0 19
5 16 5 -3 12 0 16 6 4 7 3 9 -3 6 -20 -12 -34 18 -19 38 14 20 11 49 -4 40 -5
-3 -7 6 -4 20 2 14 1 31 -3 38 -4 6 -8 18 -8 27 -2 15 -160 599 -196 722 -27
93 -43 101 -214 104 -71 2 -149 -2 -173 -7z m595 -1381 c-3 -8 -6 -5 -6 6 -1
11 2 17 5 13 3 -3 4 -12 1 -19z m17 -103 c3 -8 1 -15 -4 -15 -6 0 -10 7 -10
15 0 8 2 15 4 15 2 0 6 -7 10 -15z m6 -69 c0 -2 -7 -9 -15 -16 -13 -11 -14
-10 -9 4 5 14 24 23 24 12z m-6 -632 c3 -8 2 -12 -4 -9 -6 3 -10 10 -10 16 0
14 7 11 14 -7z m1 -55 c-4 -5 -12 -9 -18 -8 -9 0 -8 2 1 6 6 2 9 10 6 15 -4 7
-2 8 5 4 6 -4 9 -12 6 -17z m-1105 -872 c0 -2 -10 -12 -22 -23 l-23 -19 19 23
c18 21 26 27 26 19z"/>
<path d="M6916 5622 c-3 -5 1 -9 9 -9 8 0 12 4 9 9 -3 4 -7 8 -9 8 -2 0 -6 -4
-9 -8z"/>
<path d="M6927 5439 c7 -7 15 -10 18 -7 3 3 -2 9 -12 12 -14 6 -15 5 -6 -5z"/>
<path d="M6920 4661 c0 -10 26 -9 36 2 4 4 -2 7 -14 7 -12 0 -22 -4 -22 -9z"/>
<path d="M6911 4263 c0 -10 6 -34 13 -53 11 -31 13 -32 18 -12 4 13 2 22 -5
22 -7 0 -5 5 3 10 14 9 7 15 -14 11 -5 -1 -4 4 2 12 7 8 9 17 5 20 -12 13 -23
7 -22 -10z"/>
</g>
</svg>
